<?xml version="1.0" standalone="no"?>
<!DOCTYPE svg PUBLIC "-//W3C//DTD SVG 20010904//EN"
 "http://www.w3.org/TR/2001/REC-SVG-20010904/DTD/svg10.dtd">
<svg version="1.0" xmlns="http://www.w3.org/2000/svg"
 width="200.000000pt" height="200.000000pt" viewBox="0 0 200.000000 200.000000"
 preserveAspectRatio="xMidYMid meet">

<g transform="translate(0.000000,200.000000) scale(0.100000,-0.100000)"
fill="#000000" stroke="none">
<path d="M105 1983 c-16 -8 -41 -25 -54 -37 -52 -47 -51 -21 -51 -943 0 -814
1 -860 19 -899 24 -53 60 -80 124 -94 37 -8 297 -10 892 -8 950 3 879 -3 936
86 l29 46 0 862 c0 587 -3 872 -11 891 -14 38 -46 71 -91 94 -36 18 -71 19
-900 19 -767 -1 -866 -3 -893 -17z m1475 -568 l0 -125 -205 0 -205 0 0 -460 0
-460 -167 2 -168 3 0 312 0 313 123 123 c119 119 138 149 106 161 -9 3 -157 6
-330 6 l-314 0 0 125 0 125 580 0 580 0 0 -125z"/>
</g>
</svg>
